<?xml version="1.0" encoding="UTF-8" standalone="no"?>
<svg viewBox="0 0 400 400" xmlns="http://www.w3.org/2000/svg">
  <g transform="translate(0, -25)">  <g id="psyduck">
      <ellipse cx="200" cy="240" rx="110" ry="110" fill="#9370DB" stroke="#3B0764" stroke-width="2.5"/>

      <path d="M150 340 C130 350, 130 360, 150 365 C170 370, 200 365, 195 355 Z" fill="#9370DB" stroke="#3B0764" stroke-width="2"/>
      <path d="M250 340 C270 350, 270 360, 250 365 C230 370, 200 365, 205 355 Z" fill="#7D5EB8" stroke="#3B0764" stroke-width="2"/>

      <ellipse cx="200" cy="285" rx="60" ry="45" fill="#7D5EB8" stroke="none"/>

      <ellipse cx="200" cy="150" rx="80" ry="70" fill="#9370DB" stroke="#3B0764" stroke-width="2.5"/>

      <path d="M170 170 C170 190, 230 190, 230 170 L230 150 C230 130, 170 130, 170 150 Z" fill="#7D5EB8" stroke="#3B0764" stroke-width="2.5"/>

      <path d="M180 160 Q200 190, 220 160 Z" fill="#3B0764" stroke="#3B0764" stroke-width="3.5"/>

      <ellipse cx="175" cy="130" rx="20" ry="20" fill="#B19EDF" stroke="#3B0764" stroke-width="2"/>
      <ellipse cx="225" cy="130" rx="20" ry="20" fill="#B19EDF" stroke="#3B0764" stroke-width="2"/>
      <circle cx="175" cy="130" r="5" fill="#3B0764"/>
      <circle cx="225" cy="130" r="5" fill="#3B0764"/>

      <path d="M125 230 C115 240, 120 255, 140 255 C150 255, 155 245, 145 235" fill="#9370DB" stroke="#3B0764" stroke-width="2.5"/>
      <path d="M275 230 C285 240, 280 255, 260 255 C250 255, 245 245, 255 235" fill="#9370DB" stroke="#3B0764" stroke-width="2.5"/>
    </g>

  </g> </svg>