<svg viewBox="0 0 80 80" fill="none" xmlns="http://www.w3.org/2000/svg">
<path d="M80 14C79.8333 7.33333 76.3167 4 69.45 4H10.5C3.66667 4 0.166667 7.33333 0 14V69.95C0.166667 76.65 3.66667 80 10.5 80H69.45C76.3167 80 79.8333 76.65 80 69.95V14Z" fill="url(#paint0_linear_3_13783)"/>
<path d="M80 10.5C80 3.5 76.4833 0 69.45 0H10.5C3.5 0 0 3.5 0 10.5V14C0.166667 7.33333 3.66667 4 10.5 4H69.45C76.3167 4 79.8333 7.33333 80 14V10.5Z" fill="url(#paint1_linear_3_13783)"/>
<path d="M32.1667 34.9617C30.2334 32.9951 27.8834 32.0117 25.1167 32.0117C22.35 32.0117 20 32.9951 18.0667 34.9617C16.1 36.8951 15.1167 39.2451 15.1167 42.0117H35.1167C35.1167 39.2451 34.1334 36.8951 32.1667 34.9617Z" fill="white"/>
<path d="M29.3667 37.7617C28.2 36.5951 26.7834 36.0117 25.1167 36.0117C23.4834 36.0117 22.0834 36.5951 20.9167 37.7617C19.7167 38.9284 19.1167 40.3451 19.1167 42.0117H31.1167C31.1167 40.3451 30.5334 38.9284 29.3667 37.7617Z" fill="#3D465D"/>
<path d="M62.1667 34.9617C60.2334 32.9951 57.8834 32.0117 55.1167 32.0117C52.35 32.0117 50 32.9951 48.0667 34.9617C46.1 36.8951 45.1167 39.2451 45.1167 42.0117H65.1167C65.1167 39.2451 64.1334 36.8951 62.1667 34.9617Z" fill="white"/>
<path d="M59.3667 37.7617C58.2 36.5951 56.7834 36.0117 55.1167 36.0117C53.4834 36.0117 52.0834 36.5951 50.9167 37.7617C49.7167 38.9284 49.1167 40.3451 49.1167 42.0117H61.1167C61.1167 40.3451 60.5334 38.9284 59.3667 37.7617Z" fill="#3D465D"/>
<!-- Changed the shape of eyes to appear more playful -->
<path d="M16.0667 33.6115C16.6 35.5448 17.6667 36.3115 19.2667 35.9115L31.7167 32.8115C33.3167 32.4115 33.9 31.1782 33.3667 29.2448L32.3667 26.4615C31.8333 24.5282 30.7667 23.7615 29.1667 24.1615L16.7167 27.2615C15.1167 27.6615 14.5333 28.8948 15.0667 30.8282L16.0667 33.6115Z" fill="#3D465D"/>
<path d="M46.8167 27.9615C47.35 29.8949 48.4167 30.6616 50.0167 30.2616L62.4667 27.1616C64.0667 26.7616 64.65 25.5282 64.1167 23.5949L63.1167 20.8115C62.5833 18.8782 61.5167 18.1115 59.9167 18.5115L47.4667 21.6115C45.8667 22.0115 45.2833 23.2449 45.8167 25.1782L46.8167 27.9615Z" fill="#3D465D"/>
<!-- Modified smile to be broader and happier -->
<path d="M53.0666 54.9114C52.4 54.3114 51.5333 54.1114 50.5166 54.2114C49.5833 54.3447 48.7666 54.728 48.0666 55.3614C47.4 55.928 46.6166 56.478 45.6166 56.9114C43.8833 57.878 41.8333 58.2614 39.7666 58.0614C38.8 57.9614 37.8833 57.7947 37.0166 57.5614C36.25 57.3614 35.5333 57.4614 34.8666 57.8614C34.2 58.1947 33.8 58.7947 33.6666 59.5614C33.5333 60.2614 33.7333 60.8947 34.2666 61.5114C34.7333 62.0614 35.4666 62.4614 36.3666 62.6614C37.5666 62.9614 38.8666 63.1114 40.2666 63.1114C43.8333 63.1114 46.85 62.2114 49.4166 60.4114L49.3666 60.4614C50.9 59.4614 52.0333 58.3114 52.8666 57.0114C53.3333 56.3447 53.5 55.6614 53.3666 54.9614C53.2 54.2614 52.8 54.5114 53.0666 54.9114Z" fill="#3D465D"/>
<!-- Added some stars/sparkles for happiness and flair -->
<path d="M12 18L14 21L12 24L10 21L12 18Z" fill="white"/>
<path d="M68 18L70 21L68 24L66 21L68 18Z" fill="white"/>
<path d="M40 10L42 13L40 16L38 13L40 10Z" fill="white"/>
<path d="M27 69L29 72L27 75L25 72L27 69Z" fill="white"/>
<path d="M53 69L55 72L53 75L51 72L53 69Z" fill="white"/>
<defs>
<linearGradient id="paint0_linear_3_13783" x1="40" y1="-1.09798e-07" x2="40" y2="80" gradientUnits="userSpaceOnUse">
<stop stop-color="#9D76E3"/>
<stop offset="1" stop-color="#7646B9"/>
</linearGradient>
<linearGradient id="paint1_linear_3_13783" x1="39.75" y1="-0.25" x2="39.75" y2="43.25" gradientUnits="userSpaceOnUse">
<stop stop-color="#B48FF1"/>
<stop offset="1" stop-color="#9161DB"/>
</linearGradient>
</defs>
</svg>