<svg xmlns="http://www.w3.org/2000/svg" viewBox="0 0 32 32"><defs><style>.cls-2{fill:#ffb74d}</style></defs><g id="ranking"><rect x="12" y="11.12" width="8" height="20" rx="1" ry="1" style="fill:#ffe082"/><rect class="cls-2" x="23" y="20.12" width="8" height="11" rx="1" ry="1"/><rect class="cls-2" x="1" y="16.12" width="8" height="15" rx="1" ry="1"/><path d="M17.31 8.54 16 7.59l-1.31.95a1 1 0 0 1-1.54-1.11l.5-1.55-1.32-1a1 1 0 0 1 .59-1.81h1.63l.5-1.55a1 1 0 0 1 1.9 0l.5 1.55h1.63a1 1 0 0 1 .59 1.81l-1.32 1 .5 1.55a1 1 0 0 1-1.54 1.11z" style="fill:#039be5"/></g></svg>