<svg xmlns="http://www.w3.org/2000/svg" viewBox="0 0 256 256" style="enable-background:new 0 0 256 256" xml:space="preserve"><style>.st2{fill:none;stroke:#6b1d1d;stroke-width:.5;stroke-miterlimit:10}.st3{fill:#3a312a}.st4{fill:#87796f}.st5{fill:#d5de58}.st9{fill:#8ac6dd}.st10{fill:#decaad}.st11{fill:#d6df58}</style><g id="Layer_1"><path class="st11" d="M224.518 26.22s3.408 12.659 13.222 13.246c0 0-13.1 4.525-13.321 14.202 0 0-2.579-13.572-12.925-14.059 0 0 12.05-1.825 13.024-13.389z"/><path class="st3" d="M224.418 55.168a1.502 1.502 0 0 1-1.473-1.218c-.023-.124-2.494-12.417-11.521-12.843a1.5 1.5 0 0 1-.155-2.982c.441-.068 10.894-1.816 11.754-12.032a1.5 1.5 0 0 1 2.943-.266c.031.116 3.259 11.626 11.863 12.141a1.5 1.5 0 0 1 .402 2.914c-.121.042-12.119 4.311-12.312 12.82a1.5 1.5 0 0 1-1.501 1.466zm-7.741-15.73c3.878 1.969 6.23 5.746 7.587 8.876 2.026-4.021 5.941-6.787 8.949-8.427-4.135-1.843-6.783-5.651-8.334-8.723-1.793 4.361-5.272 6.869-8.202 8.274z"/><path class="st11" d="M202.82 43.2s2.411 8.954 9.352 9.369c0 0-9.266 3.201-9.422 10.045 0 0-1.824-9.6-9.142-9.944-.001.001 8.523-1.29 9.212-9.47z"/><path class="st3" d="M202.748 64.115a1.5 1.5 0 0 1-1.473-1.22c-.016-.082-1.704-8.442-7.738-8.727a1.5 1.5 0 0 1-.155-2.982c.296-.047 7.363-1.242 7.941-8.113a1.5 1.5 0 0 1 2.942-.267c.022.079 2.229 7.92 7.994 8.265a1.499 1.499 0 0 1 .4 2.915c-.081.028-8.282 2.953-8.412 8.662a1.5 1.5 0 0 1-1.499 1.467zm-4.519-11.527c2.106 1.333 3.523 3.394 4.446 5.279 1.376-2.232 3.516-3.872 5.365-4.973-2.287-1.27-3.884-3.35-4.941-5.224-1.172 2.288-3.014 3.877-4.87 4.918z"/><path class="st11" d="M202.82 16.543s2.411 8.954 9.352 9.37c0 0-9.266 3.201-9.422 10.045 0 0-1.824-9.6-9.142-9.944-.001 0 8.523-1.292 9.212-9.471z"/><path class="st3" d="M202.748 37.458a1.5 1.5 0 0 1-1.473-1.22c-.016-.082-1.704-8.442-7.738-8.727a1.5 1.5 0 0 1-.155-2.981c.296-.047 7.363-1.243 7.941-8.113a1.5 1.5 0 0 1 2.942-.266c.022.079 2.229 7.92 7.994 8.265a1.499 1.499 0 0 1 .4 2.915c-.081.028-8.282 2.953-8.412 8.662a1.5 1.5 0 0 1-1.499 1.465zm-4.519-11.527c2.106 1.332 3.523 3.393 4.446 5.279 1.377-2.232 3.516-3.872 5.365-4.973-2.287-1.27-3.884-3.35-4.941-5.224-1.172 2.288-3.014 3.876-4.87 4.918z"/><path class="st4" d="M16.393 129.846v96.91c0 7.044 5.71 12.754 12.754 12.754h118.921c7.044 0 12.754-5.71 12.754-12.754V29.244c0-7.044-5.71-12.754-12.754-12.754H29.147c-7.044 0-12.754 5.71-12.754 12.754v100.602z"/><path class="st3" d="M148.067 241.01H29.147c-7.86 0-14.254-6.395-14.254-14.254v-96.91a1.5 1.5 0 1 1 3 0v96.91c0 6.205 5.049 11.254 11.254 11.254h118.92c6.205 0 11.254-5.049 11.254-11.254V29.244c0-6.205-5.049-11.254-11.254-11.254H29.147c-6.206 0-11.254 5.049-11.254 11.254v85.434a1.5 1.5 0 1 1-3 0V29.244c0-7.859 6.394-14.254 14.254-14.254h118.92c7.859 0 14.254 6.395 14.254 14.254v197.512c0 7.859-6.394 14.254-14.254 14.254z"/><path d="M38.346 31.267a6.835 6.835 0 0 0-6.834 6.835V202.54a6.835 6.835 0 0 0 6.834 6.835h100.522a6.835 6.835 0 0 0 6.835-6.835V38.102a6.835 6.835 0 0 0-6.835-6.835H38.346z" style="fill:#f8e4c8"/><path class="st3" d="M138.868 210.874H38.346c-4.596 0-8.334-3.739-8.334-8.335V38.102c0-4.596 3.739-8.335 8.334-8.335h100.522c4.596 0 8.335 3.739 8.335 8.335V202.54c0 4.595-3.739 8.334-8.335 8.334zM38.346 32.767a5.341 5.341 0 0 0-5.334 5.335V202.54a5.341 5.341 0 0 0 5.334 5.335h100.522a5.341 5.341 0 0 0 5.335-5.335V38.102a5.341 5.341 0 0 0-5.335-5.335H38.346z"/><path class="st4" d="M95.419 224.653a6.812 6.812 0 1 1-13.624 0 6.812 6.812 0 0 1 13.624 0z"/><path class="st3" d="M88.607 232.965c-4.583 0-8.312-3.729-8.312-8.311 0-4.584 3.729-8.312 8.312-8.312 4.583 0 8.312 3.729 8.312 8.312 0 4.582-3.729 8.311-8.312 8.311zm0-13.624a5.318 5.318 0 0 0-5.312 5.312 5.317 5.317 0 0 0 5.312 5.311 5.318 5.318 0 0 0 5.312-5.311 5.318 5.318 0 0 0-5.312-5.312z"/><path class="st9" d="M202.357 122.613v47.359c0 6.653-5.389 12.042-12.042 12.042H84.438c-6.653 0-12.042-5.389-12.042-12.042v-47.359l64.981 33.051 64.98-33.051z"/><path class="st3" d="M190.314 183.514H84.438c-7.467 0-13.543-6.075-13.543-13.542v-47.358a1.498 1.498 0 0 1 2.18-1.337l64.3 32.705 64.302-32.705a1.5 1.5 0 0 1 2.18 1.337v47.358c0 7.467-6.075 13.542-13.543 13.542zM73.895 125.06v44.912c0 5.812 4.73 10.542 10.543 10.542h105.876c5.813 0 10.543-4.73 10.543-10.542V125.06l-62.802 31.941a1.5 1.5 0 0 1-1.359 0L73.895 125.06z"/><path class="st9" d="m96.185 77.158-56.578 28.777 97.769 49.727 97.77-49.727-97.77-49.728-29.681 15.096z"/><path class="st3" d="M137.376 157.162c-.233 0-.467-.055-.68-.163l-97.769-49.727a1.5 1.5 0 0 1 0-2.674L95.504 75.82a1.5 1.5 0 0 1 1.36 2.674l-53.949 27.44 94.46 48.045 94.461-48.045-94.46-48.044-29.001 14.75a1.5 1.5 0 0 1-1.36-2.674l29.682-15.096a1.5 1.5 0 0 1 1.359 0l97.77 49.728a1.498 1.498 0 0 1 0 2.674l-97.77 49.727a1.506 1.506 0 0 1-.68.163z"/><path class="st5" d="M235.146 105.935v60.569c-2.504-3.219-5.89-5.198-9.634-5.198-3.72 0-7.106 1.979-9.61 5.198v-50.792l19.244-9.777z"/><path class="st3" d="M235.145 168.004c-.454 0-.894-.207-1.184-.579-2.317-2.979-5.317-4.619-8.45-4.619-3.117 0-6.109 1.641-8.427 4.619a1.5 1.5 0 0 1-2.684-.921v-50.793a1.5 1.5 0 0 1 .82-1.337l19.244-9.776a1.49 1.49 0 0 1 1.464.059c.445.272.716.757.716 1.278v60.569a1.5 1.5 0 0 1-1.499 1.5zm-9.633-8.198c2.919 0 5.717 1.051 8.134 3.015V108.38l-16.244 8.253v46.187c2.412-1.965 5.202-3.014 8.11-3.014z"/><ellipse class="st5" cx="225.519" cy="180.55" rx="14.088" ry="19.243"/><path class="st3" d="M225.519 201.293c-8.595 0-15.588-9.305-15.588-20.742s6.993-20.743 15.588-20.743c8.596 0 15.589 9.306 15.589 20.743s-6.994 20.742-15.589 20.742zm0-38.485c-6.941 0-12.588 7.96-12.588 17.743s5.646 17.742 12.588 17.742c6.941 0 12.589-7.959 12.589-17.742s-5.648-17.743-12.589-17.743z"/><path d="M200.857 125.064v44.91c0 5.81-4.73 10.54-10.54 10.54h-15c5.81 0 10.54-4.73 10.54-10.54v-37.28l15-7.63z" style="fill:#6ca8bf"/><path class="st10" d="M144.207 38.1V58l-6.15-3.13c-.43-.22-.93-.22-1.36 0l-5.99 3.05V38.1c0-2.16-1-4.09-2.57-5.33h10.73c2.94 0 5.34 2.39 5.34 5.33zM130.707 183.51h13.5v19.03c0 2.94-2.4 5.33-5.34 5.33h-10.73a6.773 6.773 0 0 0 2.57-5.33v-19.03z"/></g></svg>