<svg xmlns="http://www.w3.org/2000/svg" viewBox="0 0 256 256" style="enable-background:new 0 0 256 256" xml:space="preserve"><style>.st2{fill:none;stroke:#6b1d1d;stroke-width:.5;stroke-miterlimit:10}.st3{fill:#3a312a}.st7{fill:#fce8cb}.st8{fill:#f16c7a}.st11{fill:#d6df58}.st16{fill:#6ca8bf}</style><g id="Layer_1"><path class="st11" d="M47.911 26.22s3.408 12.659 13.222 13.246c0 0-13.1 4.525-13.321 14.202 0 0-2.579-13.572-12.925-14.059 0 0 12.05-1.825 13.024-13.389z"/><path class="st3" d="M47.811 55.168a1.5 1.5 0 0 1-1.472-1.217c-.024-.125-2.495-12.418-11.523-12.844a1.5 1.5 0 0 1-.154-2.982c.441-.068 10.894-1.816 11.754-12.032a1.498 1.498 0 0 1 1.359-1.367 1.493 1.493 0 0 1 1.583 1.101c.032.116 3.259 11.626 11.863 12.141a1.499 1.499 0 0 1 .402 2.914c-.121.042-12.118 4.311-12.313 12.82a1.5 1.5 0 0 1-1.499 1.466zm-7.741-15.73c3.878 1.969 6.23 5.746 7.587 8.876 2.026-4.021 5.941-6.787 8.949-8.427-4.134-1.843-6.783-5.651-8.333-8.723-1.795 4.361-5.273 6.869-8.203 8.274z"/><path class="st11" d="M26.212 43.2s2.411 8.954 9.352 9.369c0 0-9.266 3.201-9.422 10.045 0 0-1.824-9.6-9.142-9.944 0 .001 8.524-1.29 9.212-9.47z"/><path class="st3" d="M26.141 64.115a1.5 1.5 0 0 1-1.472-1.22c-.016-.082-1.704-8.442-7.739-8.727a1.5 1.5 0 0 1-.154-2.982c.296-.047 7.364-1.242 7.942-8.113a1.5 1.5 0 0 1 1.36-1.368c.729-.071 1.392.4 1.582 1.101.021.079 2.228 7.92 7.994 8.265a1.499 1.499 0 0 1 .4 2.915c-.081.028-8.282 2.953-8.413 8.662a1.5 1.5 0 0 1-1.5 1.467zm-4.519-11.527c2.107 1.332 3.523 3.394 4.447 5.279 1.376-2.232 3.515-3.872 5.365-4.973-2.287-1.269-3.884-3.35-4.941-5.224-1.174 2.288-3.015 3.877-4.871 4.918z"/><path class="st11" d="M26.212 16.543s2.411 8.954 9.352 9.37c0 0-9.266 3.201-9.422 10.045 0 0-1.824-9.6-9.142-9.944 0 0 8.524-1.292 9.212-9.471z"/><path class="st3" d="M26.141 37.458a1.5 1.5 0 0 1-1.472-1.22c-.016-.082-1.704-8.442-7.739-8.727a1.5 1.5 0 0 1-.155-2.981c.295-.047 7.364-1.243 7.942-8.113a1.5 1.5 0 0 1 2.942-.266c.021.079 2.228 7.92 7.994 8.265a1.499 1.499 0 0 1 .4 2.915c-.081.028-8.282 2.953-8.413 8.662a1.5 1.5 0 0 1-1.499 1.465zM21.622 25.93c2.107 1.333 3.523 3.394 4.447 5.28 1.376-2.232 3.515-3.872 5.365-4.973-2.287-1.269-3.884-3.35-4.941-5.224-1.174 2.287-3.015 3.876-4.871 4.917z"/><path class="st11" d="m53.312 93.055-9.641 4.887a23.511 23.511 0 0 0-5.994 4.345c-12.169 12.169-7.564 32.858 8.616 38.718l40.877 14.803a23.507 23.507 0 0 1 13.8 13.321l19.551 48.563c6.293 15.632 26.507 19.757 38.422 7.842l.991-.991a23.511 23.511 0 0 0 4.345-5.994l18.629-36.755a23.503 23.503 0 0 0-4.345-27.245l-37.904-37.904-32.988-32.988a23.503 23.503 0 0 0-27.245-4.345L64.882 87.19l-11.57 5.865z"/><path class="st3" d="M142.35 233.922c-1.67 0-3.352-.167-5.026-.509a24.943 24.943 0 0 1-18.194-15.16L99.578 169.69a22.034 22.034 0 0 0-12.919-12.473l-40.876-14.803c-8.084-2.928-14.025-9.685-15.893-18.078-1.868-8.392.647-17.032 6.727-23.111a24.951 24.951 0 0 1 6.376-4.621l9.641-4.887a1.499 1.499 0 1 1 1.356 2.676l-9.641 4.887a21.998 21.998 0 0 0-5.611 4.066c-5.35 5.351-7.562 12.953-5.919 20.339 1.643 7.385 6.871 13.332 13.985 15.909l40.876 14.803a25.04 25.04 0 0 1 14.681 14.172l19.551 48.562a21.949 21.949 0 0 0 16.011 13.342 21.959 21.959 0 0 0 19.959-6l.991-.991a21.946 21.946 0 0 0 4.067-5.611l18.629-36.755a21.956 21.956 0 0 0-4.067-25.507L106.61 84.718a21.95 21.95 0 0 0-25.506-4.067L65.56 88.528a1.5 1.5 0 1 1-1.356-2.676l15.544-7.878a24.948 24.948 0 0 1 28.984 4.622l70.892 70.892a24.947 24.947 0 0 1 4.622 28.984l-18.629 36.755a24.965 24.965 0 0 1-4.622 6.377l-.991.991a24.938 24.938 0 0 1-17.654 7.327z"/><path d="m74.242 165.352 22.626 22.626-11.546 11.546c-1.914-4.71-5.206-9.156-9.338-13.288-4.132-4.132-8.578-7.424-13.288-9.338l11.546-11.546z" style="fill:#87796f"/><path class="st3" d="M85.322 201.023a1.498 1.498 0 0 1-1.389-.935c-1.719-4.229-4.75-8.532-9.009-12.792-4.26-4.259-8.564-7.29-12.792-9.009a1.498 1.498 0 0 1-.495-2.45l11.546-11.546a1.5 1.5 0 0 1 2.121 0l22.627 22.626a1.5 1.5 0 0 1 0 2.121l-11.546 11.546a1.509 1.509 0 0 1-1.063.439zm-20.029-24.601c3.932 1.94 7.875 4.877 11.752 8.753 3.876 3.876 6.812 7.82 8.753 11.752l8.95-8.949-20.505-20.505-8.95 8.949z"/><path d="M243.555 18.665s11.192 32.177-14.311 77.855c-5.773 10.331-13.42 21.36-23.518 32.856a244.083 244.083 0 0 1-11.08 11.83c-27.994 27.994-58.602 47.076-83.152 53.801-4.092 1.114-8.336-.01-11.212-2.887L70.1 161.938c-2.876-2.876-4.001-7.12-2.876-11.202 6.715-24.561 25.796-55.168 53.791-83.162a243.587 243.587 0 0 1 11.83-11.08c11.496-10.057 22.566-17.684 32.947-23.426 45.292-25.037 77.763-14.403 77.763-14.403z" style="fill:#8ac6dd"/><path class="st3" d="M108.377 196.924c-3.416 0-6.728-1.314-9.156-3.743L69.04 162.999c-3.264-3.265-4.514-8.116-3.262-12.661 7.089-25.931 26.837-56.484 54.176-83.824a246.551 246.551 0 0 1 11.902-11.149c10.809-9.455 21.981-17.399 33.209-23.61 45.342-25.064 77.605-14.958 78.957-14.516.445.146.796.491.95.933.466 1.34 11.119 33.34-14.418 79.08-6.252 11.188-14.226 22.328-23.7 33.114a245.998 245.998 0 0 1-11.147 11.9c-27.331 27.332-57.881 47.082-83.816 54.186a13.32 13.32 0 0 1-3.514.472zM224.988 17.977c-13.716 0-34.292 3.038-58.472 16.403-11.041 6.108-22.038 13.928-32.686 23.243a243.403 243.403 0 0 0-11.756 11.012c-26.982 26.982-46.447 57.052-53.404 82.497-.967 3.51-.012 7.243 2.49 9.746l30.182 30.182c2.501 2.502 6.241 3.461 9.757 2.5 25.445-6.971 55.511-26.439 82.485-53.414a243.01 243.01 0 0 0 11.013-11.757c9.337-10.63 17.188-21.597 23.337-32.6 22.807-40.85 15.832-70.921 14.423-75.904-2.02-.533-8.143-1.908-17.369-1.908z"/><path class="st8" d="M28.977 239.576c8.125.098 16.003-2.977 21.781-8.69l.17-.169c.631-.631 3.814-1.268-2.835 8.596 11.485-.955 22.655-3.682 28.745-9.772 16.216-16.216 11.345-31.116-.847-43.308s-27.092-17.063-43.308-.847c-5.724 5.724-7.892 11.777-9.128 17.932 4.518-.79 9.144-.572 8.783-.316-9.075 6.452-9.065 12.02-13.589 22.194-1.75 3.936-4.414 7.796-8.711 11.517-.269.232.88.626 3.064 1.057 2.978.586 5.779 1.098 8.442 1.471 1.289.18 2.584.276 3.885.291l3.548.044z"/><path class="st3" d="M29.348 241.078c-.13 0-.259 0-.389-.002l-3.547-.043a32.325 32.325 0 0 1-4.075-.307c-2.348-.329-4.976-.786-8.523-1.484-3.117-.615-3.993-1.038-4.261-2.054-.146-.555.072-1.237.507-1.611 3.756-3.253 6.478-6.849 8.32-10.99 1.077-2.422 1.911-4.627 2.647-6.572 2.03-5.366 3.59-9.489 8.262-13.703a37.177 37.177 0 0 0-4.475.483 1.515 1.515 0 0 1-1.332-.431 1.498 1.498 0 0 1-.397-1.342c1.137-5.667 3.16-12.319 9.538-18.697 7.889-7.89 16.086-11.489 24.371-10.661 7.027.69 14.113 4.562 21.059 11.509 6.946 6.946 10.818 14.031 11.509 21.059.814 8.283-2.773 16.482-10.662 24.37-5.601 5.601-15.587 9.034-29.681 10.207a1.5 1.5 0 0 1-1.368-2.333c1.363-2.023 2.25-3.514 2.826-4.602-5.644 4.616-12.889 7.204-20.329 7.204zm-16.518-4.894c.173.036.36.075.564.115 3.489.687 6.068 1.136 8.359 1.457 1.208.169 2.45.263 3.695.277l3.547.043c.118.002.236.002.354.002 7.633 0 15.034-2.998 20.354-8.259l.164-.163c.753-.754 2.155-1.08 3.107-.293 1.219 1.005 1.316 2.856-1.934 8.154 11.606-1.319 20.123-4.422 24.738-9.037 7.223-7.223 10.519-14.609 9.797-21.956-.621-6.318-4.202-12.788-10.645-19.23-6.442-6.442-12.913-10.023-19.231-10.645-7.341-.719-14.732 2.575-21.956 9.797-5.056 5.056-7.118 10.349-8.26 15.081a42.66 42.66 0 0 1 4.026-.258c3.04-.041 3.833.165 4.23 1.117a1.557 1.557 0 0 1-.532 1.837c-6.508 4.628-8.047 8.695-10.376 14.853-.75 1.982-1.601 4.23-2.712 6.729-1.713 3.854-4.108 7.268-7.289 10.379z"/><path d="M44.897 185.625c11.643-11.643 22.34-8.145 31.094.608 8.753 8.753 12.251 19.451.608 31.094-4.373 4.373-12.392 6.331-20.638 7.016 4.774-7.082 2.489-6.625 2.035-6.172-8.118 8.114-15.893 7.279-27.156 5.064-1.569-.31-2.394-.593-2.2-.759 3.085-2.671 4.997-5.443 6.254-8.269 3.248-7.305 3.241-11.302 9.756-15.934.259-.184-3.062-.341-6.306.227.887-4.42 2.444-8.766 6.553-12.875z" style="fill:#d7e057"/><path class="st3" d="M42.667 226.252c-3.684 0-7.652-.667-12.117-1.545-2.092-.414-3.107-.725-3.387-1.782a1.626 1.626 0 0 1 .496-1.584c2.649-2.294 4.567-4.827 5.864-7.743.768-1.728 1.365-3.305 1.891-4.696 1.302-3.442 2.396-6.332 5.2-9.187-.643.058-1.327.142-2.012.262a1.514 1.514 0 0 1-1.332-.431 1.496 1.496 0 0 1-.397-1.342c.829-4.131 2.305-8.981 6.963-13.64 5.757-5.757 11.756-8.381 17.838-7.776 5.146.505 10.319 3.326 15.377 8.385 5.058 5.058 7.879 10.231 8.385 15.377.597 6.078-2.02 12.08-7.777 17.837-4.094 4.094-11.352 6.601-21.574 7.451a1.498 1.498 0 0 1-1.368-2.333c.308-.457.581-.875.823-1.256-4.119 2.963-8.274 4.003-12.873 4.003zm-11.169-4.416c10.789 2.105 17.936 2.771 25.437-4.726.686-.687 1.92-.961 2.799-.238 1.147.946.944 2.569-.85 5.658 7.798-.986 13.521-3.132 16.654-6.265 5.092-5.092 7.417-10.281 6.912-15.423-.436-4.437-2.966-8.994-7.52-13.549-4.555-4.555-9.113-7.085-13.549-7.52-5.138-.503-10.331 1.821-15.423 6.912-3.342 3.343-4.828 6.84-5.664 10.02 2.349-.259 5.229-.296 5.755.965a1.54 1.54 0 0 1-.531 1.827c-4.565 3.246-5.652 6.118-7.296 10.466-.541 1.429-1.153 3.048-1.956 4.854-1.152 2.586-2.721 4.9-4.768 7.019z"/><path class="st8" d="m160.516 84.166 45.21 45.21c10.098-11.496 17.745-22.525 23.518-32.856l-63.453-63.453c-10.381 5.743-21.451 13.369-32.947 23.427l18.309 18.309 9.363 9.363z"/><path class="st3" d="M205.727 130.877a1.5 1.5 0 0 1-1.061-.439l-45.21-45.211a1.5 1.5 0 1 1 2.121-2.121l44.074 44.075c8.599-9.933 15.9-20.149 21.727-30.404L165.532 34.93c-10.293 5.79-20.538 13.062-30.49 21.642l17.172 17.171a1.5 1.5 0 1 1-2.121 2.121l-18.31-18.309a1.5 1.5 0 0 1 .073-2.189c10.808-9.455 21.98-17.399 33.208-23.61a1.498 1.498 0 0 1 1.787.252l63.453 63.453a1.5 1.5 0 0 1 .249 1.792c-6.252 11.187-14.226 22.328-23.7 33.115a1.503 1.503 0 0 1-1.078.509h-.048z"/><circle class="st7" cx="161.3" cy="56.767" r="9.271"/><path class="st3" d="M161.3 67.532c-2.759 0-5.517-1.05-7.616-3.149-4.198-4.199-4.198-11.033 0-15.232 4.2-4.2 11.034-4.198 15.232 0 4.198 4.199 4.198 11.033 0 15.232a10.74 10.74 0 0 1-7.616 3.149zm0-18.532c-1.99 0-3.981.757-5.495 2.271-3.029 3.03-3.029 7.96 0 10.99 3.029 3.029 7.959 3.029 10.99 0 3.029-3.03 3.029-7.96 0-10.99A7.75 7.75 0 0 0 161.3 49z"/><circle class="st7" cx="183.863" cy="79.33" r="9.271"/><path class="st3" d="M183.862 90.101c-2.877 0-5.581-1.12-7.615-3.155a10.695 10.695 0 0 1-3.155-7.616c0-2.877 1.12-5.581 3.155-7.615a10.695 10.695 0 0 1 7.615-3.155c2.877 0 5.582 1.12 7.616 3.155a10.696 10.696 0 0 1 3.155 7.615c0 2.878-1.12 5.582-3.155 7.616a10.7 10.7 0 0 1-7.616 3.155zm0-18.542a7.723 7.723 0 0 0-5.494 2.276 7.719 7.719 0 0 0-2.276 5.494c0 2.076.809 4.027 2.276 5.495a7.719 7.719 0 0 0 5.494 2.276 7.723 7.723 0 0 0 5.495-2.276 7.72 7.72 0 0 0 2.276-5.495 7.723 7.723 0 0 0-2.276-5.494 7.717 7.717 0 0 0-5.495-2.276z"/><circle class="st7" cx="206.426" cy="101.893" r="9.271"/><path class="st3" d="M206.426 112.658c-2.759 0-5.517-1.05-7.616-3.149-4.198-4.199-4.198-11.033 0-15.232 4.199-4.2 11.033-4.198 15.232 0 4.198 4.199 4.198 11.033 0 15.232a10.74 10.74 0 0 1-7.616 3.149zm0-18.532a7.75 7.75 0 0 0-5.495 2.271c-3.029 3.03-3.029 7.96 0 10.99 3.029 3.029 7.959 3.029 10.99 0 3.029-3.03 3.029-7.96 0-10.99a7.75 7.75 0 0 0-5.495-2.271z"/><path class="st8" d="m98.743 175.672-12.195-12.195c-2.591-2.591-2.223-6.893.771-9.006l41.422-29.227a5.908 5.908 0 0 1 8.234 8.234L107.748 174.9c-2.113 2.995-6.414 3.364-9.005.772z"/><path class="st3" d="M102.916 178.903a7.39 7.39 0 0 1-5.234-2.17l-12.195-12.195a7.393 7.393 0 0 1-2.143-5.871 7.393 7.393 0 0 1 3.11-5.421l41.422-29.227a7.395 7.395 0 0 1 9.509.815 7.392 7.392 0 0 1 .816 9.509l-29.228 41.424a7.393 7.393 0 0 1-6.057 3.136zm-3.113-4.291a4.407 4.407 0 0 0 3.494 1.274 4.396 4.396 0 0 0 3.226-1.851l29.228-41.423a4.399 4.399 0 0 0-.485-5.658 4.396 4.396 0 0 0-5.659-.485l-41.421 29.228a4.401 4.401 0 0 0-1.851 3.227 4.402 4.402 0 0 0 1.275 3.493l12.193 12.195z"/><path class="st16" d="m228.88 94.04-8.89-8.89c17.93-39.56 8.56-66.48 8.56-66.48s-.92-.3-2.66-.68c8.72.08 14.52 1.38 16.47 1.89 1.39 4.92 8.16 34.21-13.48 74.16zM196.61 122.39c-1.86 2.31-3.82 4.64-5.88 6.99-3.41 3.89-7.09 7.84-11.08 11.83-25.35 25.34-52.83 43.37-76.02 51.55 2.23 1.18 4.91 1.5 7.47.8 25.44-6.97 55.51-26.44 82.48-53.41 3.51-3.51 6.89-7.11 10.08-10.71l-7.05-7.05z"/><path d="M218.64 88.04c-1.14 2.37-2.37 4.79-3.72 7.24 3.3 4.22 3 10.35-.88 14.23-2.1 2.1-4.86 3.15-7.61 3.15-.76 0-1.52-.08-2.26-.24-1.78 2.5-3.66 5.04-5.68 7.6l7.16 7.16c8.6-9.93 15.9-20.15 21.73-30.4l-8.74-8.74z" style="fill:#d34e5c"/></g></svg>