<svg height="200px" width="200px" version="1.1" id="Layer_1" xmlns="http://www.w3.org/2000/svg" xmlns:xlink="http://www.w3.org/1999/xlink" viewBox="0 0 512.001 512.001" xml:space="preserve" fill="#000000"><g id="SVGRepo_bgCarrier" stroke-width="0"></g><g id="SVGRepo_tracerCarrier" stroke-linecap="round" stroke-linejoin="round"></g><g id="SVGRepo_iconCarrier"> <g> <path style="fill:#A67C52;" d="M84.096,436.178l-49.312,37.686c-7.54,5.762-8.981,16.547-3.219,24.087 c3.383,4.425,8.494,6.751,13.666,6.751c3.638,0,7.306-1.151,10.421-3.532l49.312-37.686c7.54-5.762,8.981-16.547,3.219-24.087 C102.421,431.858,91.637,430.416,84.096,436.178z"></path> <path style="fill:#A67C52;" d="M441.194,473.864l-49.312-37.686c-7.541-5.762-18.325-4.32-24.087,3.219 c-5.762,7.541-4.321,18.325,3.219,24.087l49.312,37.686c3.115,2.38,6.782,3.532,10.421,3.532c5.171,0,10.284-2.326,13.665-6.751 C450.175,490.411,448.734,479.627,441.194,473.864z"></path> </g> <path style="fill:#DBAD75;" d="M237.989,36.024c-131.227,0-237.989,106.761-237.989,237.989s106.761,237.989,237.989,237.989 S475.978,405.24,475.978,274.012S369.216,36.024,237.989,36.024z"></path> <path style="fill:#EABD81;" d="M237.989,36.024c-131.227,0-237.989,106.761-237.989,237.989s106.761,237.989,237.989,237.989V36.024 z"></path> <path style="fill:#BC2A46;" d="M237.989,80.411c-106.752,0-193.601,86.849-193.601,193.601s86.849,193.601,193.601,193.601 s193.601-86.849,193.601-193.601S344.742,80.411,237.989,80.411z"></path> <path style="fill:#D62D46;" d="M237.989,80.411c-106.752,0-193.601,86.849-193.601,193.601s86.849,193.601,193.601,193.601V80.411z"></path> <path style="fill:#DBAD75;" d="M237.989,142.771c-72.367,0-131.241,58.874-131.241,131.241s58.874,131.241,131.241,131.241 S369.23,346.379,369.23,274.012S310.355,142.771,237.989,142.771z"></path> <path style="fill:#EABD81;" d="M237.989,142.771c-72.367,0-131.241,58.874-131.241,131.241s58.874,131.241,131.241,131.241V142.771z "></path> <path style="fill:#BC2A46;" d="M237.989,209.763c-35.427,0-64.248,28.821-64.248,64.248s28.821,64.248,64.248,64.248 s64.248-28.821,64.248-64.248S273.416,209.763,237.989,209.763z"></path> <path style="fill:#D62D46;" d="M237.989,209.763c-35.427,0-64.248,28.821-64.248,64.248s28.821,64.248,64.248,64.248V209.763z"></path> <path style="fill:#CFCDD6;" d="M237.989,291.196c-4.398,0-8.796-1.677-12.15-5.034c-6.711-6.711-6.711-17.59,0-24.301 L448.687,39.014c6.71-6.711,17.59-6.711,24.301,0s6.711,17.59,0,24.301L250.14,286.162 C246.784,289.519,242.386,291.196,237.989,291.196z"></path> <path style="fill:#DEE1E7;" d="M237.989,291.196c-4.398,0-8.796-1.677-12.15-5.034c-6.711-6.711-6.711-17.59,0-24.301 l106.576-106.576l24.301,24.301L250.14,286.162C246.784,289.519,242.386,291.196,237.989,291.196z"></path> <path style="fill:#39B7B6;" d="M457.533,105.266h-33.615c-9.49,0-17.184-7.694-17.184-17.184V54.467 c0-9.49,7.694-17.184,17.184-17.184s17.184,7.694,17.184,17.184v16.432h16.431c9.49,0,17.184,7.694,17.184,17.184 S467.023,105.266,457.533,105.266z"></path> <path style="fill:#FBB03B;" d="M476.175,86.623h-33.614c-9.49,0-17.184-7.694-17.184-17.184V35.825 c0-9.49,7.694-17.184,17.184-17.184s17.184,7.694,17.184,17.184v16.431h16.431c9.49,0,17.184,7.694,17.184,17.184 S485.665,86.623,476.175,86.623z"></path> <path style="fill:#39B7B6;" d="M494.817,67.982h-33.614c-9.49,0-17.184-7.694-17.184-17.184V17.184 c0-9.49,7.694-17.184,17.184-17.184s17.184,7.694,17.184,17.184v16.431h16.431c9.49,0,17.184,7.694,17.184,17.184 S504.308,67.982,494.817,67.982z"></path> </g></svg>