<?xml version="1.0" encoding="UTF-8" standalone="no"?>
<svg
   viewBox="0 0 400 400"
   version="1.1"
   id="svg7"
   sodipodi:docname="mascot.svg"
   inkscape:version="1.3.2 (091e20e, 2023-11-25, custom)"
   xmlns:inkscape="http://www.inkscape.org/namespaces/inkscape"
   xmlns:sodipodi="http://sodipodi.sourceforge.net/DTD/sodipodi-0.dtd"
   xmlns="http://www.w3.org/2000/svg"
   xmlns:svg="http://www.w3.org/2000/svg">
  <defs id="defs7" />
  <sodipodi:namedview
     id="namedview7"
     pagecolor="#ffffff"
     bordercolor="#000000"
     borderopacity="0.25"
     inkscape:showpageshadow="2"
     inkscape:pageopacity="0.0"
     inkscape:pagecheckerboard="0"
     inkscape:deskcolor="#d1d1d1"
     showgrid="false"
     inkscape:zoom="1.9675"
     inkscape:cx="200"
     inkscape:cy="200"
     inkscape:window-width="1920"
     inkscape:window-height="1001"
     inkscape:window-x="-9"
     inkscape:window-y="-9"
     inkscape:window-maximized="1"
     inkscape:current-layer="svg7" />

  <!-- Body (main oval) -->
  <ellipse
     cx="200"
     cy="222.15175"
     fill="#9370db"
     stroke="#9370db"
     stroke-width="3.78205"
     id="ellipse1"
     rx="189.12489"
     ry="146.42397" />

  <!-- Left Foot -->
  <path
     d="m 114.03414,355.26445 c -34.386344,13.31127 -34.386344,26.62254 0,33.27817 34.38634,6.65564 85.96586,0 77.36927,-13.31127 z"
     fill="#7d5eb8"
     stroke="#9370db"
     stroke-width="3.02564"
     id="path1" />

  <!-- Right Foot -->
  <path
     d="m 285.96586,355.26445 c 34.38634,13.31127 34.38634,26.62254 0,33.27817 -34.38634,6.65564 -85.96586,0 -77.36927,-13.31127 z"
     fill="#7d5eb8"
     stroke="#9370db"
     stroke-width="3.02564"
     id="path2" />

  <!-- Belly -->
  <ellipse
     cx="200"
     cy="282.05246"
     rx="103.15903"
     ry="59.900715"
     fill="#d8b4fe"
     stroke="none"
     id="ellipse2"
     style="stroke-width:1.51282" />

  <!-- Head -->
  <ellipse
     cx="200"
     cy="102.35032"
     rx="137.54538"
     ry="93.178886"
     fill="#9370db"
     stroke="#8565c7"
     stroke-width="3.78205"
     id="ellipse3" />

  <!-- Mouth Area -->
  <path
     d="m 148.42048,128.97286 c 0,26.62254 103.15904,26.62254 103.15904,0 v -26.62254 c 0,-26.622543 -103.15904,-26.622543 -103.15904,0 z"
     fill="#7d5eb8"
     stroke="#8565c7"
     stroke-width="3.78205"
     id="path3" />

  <!-- Tongue or Inner Mouth -->
  <path
     d="m 166.182,115.73327 q 33.818,52.8229 67.636,0 z"
     fill="#3b0764"
     stroke="#8565c7"
     stroke-width="6.03918"
     id="path4"
     style="fill:#b19edf;fill-opacity:1" />

  <!-- Left Eye White -->
  <ellipse
     cx="157.01707"
     cy="75.727776"
     fill="#b19edf"
     stroke="#8565c7"
     stroke-width="3.02564"
     id="ellipse4"
     rx="34.386345"
     ry="26.62254" />

  <!-- Right Eye White -->
  <ellipse
     cx="242.98293"
     cy="75.727776"
     fill="#b19edf"
     stroke="#8565c7"
     stroke-width="3.02564"
     id="ellipse5"
     rx="34.386345"
     ry="26.62254" />

  <!-- Left Pupil -->
  <ellipse
     cx="157.01707"
     cy="75.727776"
     fill="#8565c7"
     id="circle5"
     rx="8.5965862"
     ry="6.6556349"
     style="stroke-width:1.51282" />

  <!-- Right Pupil -->
  <ellipse
     cx="242.98293"
     cy="75.727776"
     fill="#8565c7"
     id="circle6"
     rx="8.5965862"
     ry="6.6556349"
     style="stroke-width:1.51282" />

  <!-- Left Arm -->
  <path
     d="m 71.05121,208.84048 c -17.193172,13.31127 -8.596586,33.27817 25.789758,33.27817 17.193172,0 25.789762,-13.31127 8.596582,-26.62254"
     fill="#9370db"
     stroke="#8565c7"
     stroke-width="3.78205"
     id="path6" />

  <!-- Right Arm -->
  <path
     d="m 328.94879,208.84048 c 17.19317,13.31127 8.59659,33.27817 -25.78976,33.27817 -17.19317,0 -25.78976,-13.31127 -8.59658,-26.62254"
     fill="#9370db"
     stroke="#8565c7"
     stroke-width="3.78205"
     id="path7" />
</svg>
